<svg xmlns="http://www.w3.org/2000/svg" width="51.849" height="51.848" viewBox="0 0 51.849 51.848"><defs><style>.a{fill:#f5f7fa;}.b{fill:#dcdfe5;}</style></defs><g transform="translate(-317 -188)"><ellipse class="a" cx="25.924" cy="25.924" rx="25.924" ry="25.924" transform="translate(317 188)"/><path class="b" d="M22.261,17.145V11.237H7.492V37.822H37.03V17.145ZM13.4,34.868H10.445V31.914H13.4Zm0-5.908H10.445V26.007H13.4Zm0-5.908H10.445V20.1H13.4Zm0-5.908H10.445V14.191H13.4Zm5.908,17.723H16.353V31.914h2.954Zm0-5.908H16.353V26.007h2.954Zm0-5.908H16.353V20.1h2.954Zm0-5.908H16.353V14.191h2.954ZM34.076,34.868H22.261V31.914h2.954V28.96H22.261V26.007h2.954V23.053H22.261V20.1H34.076ZM31.122,23.053H28.168v2.954h2.954Zm0,5.908H28.168v2.954h2.954Z" transform="translate(321.132 189.524)"/></g></svg>