<svg xmlns="http://www.w3.org/2000/svg" xmlns:xlink="http://www.w3.org/1999/xlink" width="153.5" height="153.5" viewBox="0 0 153.5 153.5"><defs><style>.a{fill:#f5f7fa;}.b{fill:url(#a);}.c{fill:#fff;}.d{fill:#e0e4eb;}</style><linearGradient id="a" x1="0.792" y1="0.656" x2="0.212" y2="0.338" gradientUnits="objectBoundingBox"><stop offset="0" stop-color="#fff" stop-opacity="0"/><stop offset="0.207" stop-color="#f6f7f9" stop-opacity="0.282"/><stop offset="0.413" stop-color="#eef0f4" stop-opacity="0.537"/><stop offset="0.603" stop-color="#e8ebf0" stop-opacity="0.737"/><stop offset="0.77" stop-color="#e3e7ed" stop-opacity="0.882"/><stop offset="0.908" stop-color="#e0e4eb" stop-opacity="0.969"/><stop offset="1" stop-color="#e0e4eb"/></linearGradient></defs><g transform="translate(124.581 -9.75)"><circle class="a" cx="76.75" cy="76.75" r="76.75" transform="translate(-124.581 9.75)"/><path class="b" d="M-30.546,31.721,9.154,67.2l-66.062,77.753-41.45-35.479Z" transform="translate(19.649 16.463)"/><g transform="translate(-85.719 46.048)"><circle class="c" cx="27.994" cy="27.994" r="27.994" transform="translate(16.952 12.459)"/><path class="d" d="M-31.55,30.5H-92.184a5.119,5.119,0,0,0-5.134,5.045V45.637h7.611A2.569,2.569,0,0,1-87.139,48.2a2.57,2.57,0,0,1-2.568,2.568H-99.8a2.569,2.569,0,0,0-2.568,2.566A2.57,2.57,0,0,0-99.8,55.9h2.479v10.09h7.611a2.57,2.57,0,0,1,2.568,2.568,2.569,2.569,0,0,1-2.568,2.566H-99.8a2.57,2.57,0,0,0-2.568,2.568A2.569,2.569,0,0,0-99.8,76.263h2.479V86.355h7.611a2.569,2.569,0,0,1,2.568,2.566,2.57,2.57,0,0,1-2.568,2.568H-99.8a2.568,2.568,0,0,0-2.568,2.566A2.57,2.57,0,0,0-99.8,96.623h2.479v9.737a5.1,5.1,0,0,0,5.045,5.045H-31.64a5.043,5.043,0,0,0,5.045-5.045V35.545A4.912,4.912,0,0,0-31.55,30.5ZM-65.2,60.847c2.655,3.364,1.328,4.249-.177,5.753-1.062,1.064,1.151,3.719,3.451,6.019s5.047,4.515,6.019,3.453c1.506-1.5,2.479-2.834,5.753-.177,3.364,2.655.8,4.513-.707,5.93-1.683,1.681-8.055.087-14.251-6.109-6.285-6.283-7.879-12.569-6.109-14.251,1.594-1.415,3.364-3.983,6.019-.619Zm4.975-11.4A21.477,21.477,0,0,1-38.721,70.952a21.572,21.572,0,0,1-21.6,21.6,21.572,21.572,0,0,1-21.6-21.6A21.629,21.629,0,0,1-60.23,49.443Z" transform="translate(102.365 -30.5)"/></g></g></svg>