<svg xmlns="http://www.w3.org/2000/svg" xmlns:xlink="http://www.w3.org/1999/xlink" width="717.54" height="298.5" viewBox="0 0 717.54 298.5"><defs><style>.a{fill:url(#a);}.b{fill:#a7acc0;font-size:14px;font-family:Roboto-Regular, Roboto;}.c,.d,.g{fill:none;}.c{stroke:#707070;opacity:0.05;}.d,.e{stroke:#a3d94e;stroke-width:3px;}.e{fill:#fff;}.f{stroke:none;}</style><linearGradient id="a" x1="0.489" y1="0.71" x2="0.489" y2="-0.209" gradientUnits="objectBoundingBox"><stop offset="0" stop-color="#fff" stop-opacity="0.039"/><stop offset="1" stop-color="#a3d94e"/></linearGradient></defs><g transform="translate(-529.46 -312)"><g transform="translate(0 22)"><path class="a" d="M3350,12913l96,30,98-26.333,99.333-3.667L3749,12889l99.333,50,97-34.333v166H3350Z" transform="translate(-2728 -12539)"/><text class="b" transform="translate(529.46 543)"><tspan x="0" y="0">1 M</tspan></text><line class="c" x2="653.5" transform="translate(593.46 386.5)"/><line class="c" x2="653.5" transform="translate(593.46 346.5)"/><line class="c" x2="653.5" transform="translate(593.5 546.5)"/><line class="c" x2="653.5" transform="translate(593.46 506.5)"/><line class="c" x2="653.5" transform="translate(593.46 466.5)"/><line class="c" x2="653.5" transform="translate(593.46 426.5)"/><text class="b" transform="translate(529.46 503)"><tspan x="0" y="0">2 M</tspan></text><text class="b" transform="translate(529.46 463)"><tspan x="0" y="0">3 M</tspan></text><text class="b" transform="translate(529.46 423)"><tspan x="0" y="0">4 M</tspan></text><text class="b" transform="translate(529.46 383)"><tspan x="0" y="0">5 M</tspan></text><text class="b" transform="translate(529.46 343)"><tspan x="0" y="0">6 M</tspan></text><text class="b" transform="translate(593 584.5)"><tspan x="0" y="0">Jan 2019</tspan></text><text class="b" transform="translate(691 584.5)"><tspan x="0" y="0">Feb 2019</tspan></text><text class="b" transform="translate(789 584.5)"><tspan x="0" y="0">Mar 2019</tspan></text><text class="b" transform="translate(888 584.5)"><tspan x="0" y="0" xml:space="preserve">Apr  2019</tspan></text><text class="b" transform="translate(988 584.5)"><tspan x="0" y="0" xml:space="preserve">May  2019</tspan></text><text class="b" transform="translate(1093 584.5)"><tspan x="0" y="0">Jul 2019</tspan></text><text class="b" transform="translate(1187 584.5)"><tspan x="0" y="0">Aug 2019</tspan></text><path class="d" d="M4618.191,13027.66l98,29,95.333-25.334,105-3.666,103.667-23.667,100.333,50,93-35" transform="translate(-3998.858 -12652.993)"/><g class="e" transform="translate(615 367)"><circle class="f" cx="7" cy="7" r="7"/><circle class="g" cx="7" cy="7" r="5.5"/></g><g class="e" transform="translate(713 396)"><circle class="f" cx="7" cy="7" r="7"/><circle class="g" cx="7" cy="7" r="5.5"/></g><g class="e" transform="translate(812 370)"><circle class="f" cx="7" cy="7" r="7"/><circle class="g" cx="7" cy="7" r="5.5"/></g><g class="e" transform="translate(911 367)"><circle class="f" cx="7" cy="7" r="7"/><circle class="g" cx="7" cy="7" r="5.5"/></g><g class="e" transform="translate(1014 344)"><circle class="f" cx="7" cy="7" r="7"/><circle class="g" cx="7" cy="7" r="5.5"/></g><g class="e" transform="translate(1113 392)"><circle class="f" cx="7" cy="7" r="7"/><circle class="g" cx="7" cy="7" r="5.5"/></g><g class="e" transform="translate(1210 358)"><circle class="f" cx="7" cy="7" r="7"/><circle class="g" cx="7" cy="7" r="5.5"/></g><line class="c" x2="653.5" transform="translate(593.46 306.5)"/><text class="b" transform="translate(529.46 303)"><tspan x="0" y="0">7 M</tspan></text></g></g></svg>