<svg xmlns="http://www.w3.org/2000/svg" width="154.001" height="154" viewBox="0 0 154.001 154"><defs><style>.a{fill:#f5f7fa;}.b{fill:#a3d94e;}.c{fill:#fff;}.d{fill:#797d8d;font-size:12px;}.d,.e{font-family:Roboto-Regular, Roboto;}.e{fill:#555;font-size:36px;}</style></defs><g transform="translate(-721 -877)"><path class="a" d="M-4136-12307a76.55,76.55,0,0,1-29.972-6.051,77.129,77.129,0,0,1-13.081-7.1,77.491,77.491,0,0,1-11.4-9.405,77.5,77.5,0,0,1-9.4-11.394,76.714,76.714,0,0,1-7.1-13.081,76.362,76.362,0,0,1-5.97-26.413l11.985-.585A64.87,64.87,0,0,0-4136-12319a65.072,65.072,0,0,0,65-65,65.072,65.072,0,0,0-65-65l-.5,0,0-12h.5a76.52,76.52,0,0,1,29.968,6.05,76.863,76.863,0,0,1,13.08,7.1,77.562,77.562,0,0,1,11.4,9.405,77.6,77.6,0,0,1,9.4,11.394,76.85,76.85,0,0,1,7.1,13.081A76.485,76.485,0,0,1-4059-12384a76.477,76.477,0,0,1-6.054,29.971,76.74,76.74,0,0,1-7.1,13.081,77.453,77.453,0,0,1-9.4,11.394,77.476,77.476,0,0,1-11.4,9.405,76.881,76.881,0,0,1-13.08,7.1A76.542,76.542,0,0,1-4136-12307Z" transform="translate(-3337.916 -11430) rotate(180)"/><path class="b" d="M-4136-12307a76.55,76.55,0,0,1-29.972-6.051,77.129,77.129,0,0,1-13.081-7.1,77.491,77.491,0,0,1-11.4-9.405,77.5,77.5,0,0,1-9.4-11.394,76.714,76.714,0,0,1-7.1-13.081A76.47,76.47,0,0,1-4213-12384a76.479,76.479,0,0,1,6.05-29.972,76.825,76.825,0,0,1,6.922-12.817l9.664,7.188A64.647,64.647,0,0,0-4201-12384a65.074,65.074,0,0,0,65,65,65.072,65.072,0,0,0,65-65,65.072,65.072,0,0,0-65-65l-.5,0,0-12h.5a76.52,76.52,0,0,1,29.968,6.05,76.863,76.863,0,0,1,13.08,7.1,77.562,77.562,0,0,1,11.4,9.405,77.6,77.6,0,0,1,9.4,11.394,76.85,76.85,0,0,1,7.1,13.081A76.485,76.485,0,0,1-4059-12384a76.477,76.477,0,0,1-6.054,29.971,76.74,76.74,0,0,1-7.1,13.081,77.453,77.453,0,0,1-9.4,11.394,77.476,77.476,0,0,1-11.4,9.405,76.881,76.881,0,0,1-13.08,7.1A76.542,76.542,0,0,1-4136-12307Z" transform="translate(4933.998 13338)"/><circle class="c" cx="69" cy="69" r="69" transform="translate(729 885)"/><g transform="translate(0 -7)"><text class="d" transform="translate(774 987)"><tspan x="0" y="0">Delivered</tspan></text><text class="e" transform="translate(798 967)"><tspan x="-33.398" y="0">82%</tspan></text></g></g></svg>