<svg xmlns="http://www.w3.org/2000/svg" xmlns:xlink="http://www.w3.org/1999/xlink" width="455.156" height="491.866" viewBox="0 0 455.156 491.866"><defs><style>.a{fill:#cde0c9;}.b,.v{fill:#f5f7fa;}.ac,.ad,.ae,.af,.ah,.ak,.al,.b,.h,.j,.k,.n,.o,.p{fill-rule:evenodd;}.c,.f{opacity:0.8;}.c{fill:url(#a);}.d{fill:url(#b);}.e{fill:url(#c);}.f{fill:url(#d);}.ai,.aj,.g{fill:#e0e4eb;}.g{opacity:0.75;}.ae,.h,.m{fill:#125462;}.i,.n{fill:#f9ab8e;}.j,.l{fill:#68b2a0;}.ab,.k{opacity:0.1;}.o{fill:#ff7575;opacity:0.22;}.p{fill:url(#e);}.q{opacity:0.44;}.r{clip-path:url(#f);}.ah,.s{fill:#fff;}.ag,.t{fill:#d6edff;}.u{clip-path:url(#g);}.w{clip-path:url(#h);}.x{clip-path:url(#i);}.y{clip-path:url(#j);}.ad,.z{fill:#90d866;}.aa{fill:#c3ea92;}.ac{fill:#515151;opacity:0.24;}.ae{opacity:0.2;}.af{fill:url(#k);}.ag{opacity:0.53;}.aj{opacity:0.7;}.ak{fill:url(#l);}.al{fill:url(#m);}</style><linearGradient id="a" x1="0.617" y1="0.491" x2="-0.601" y2="0.866" gradientUnits="objectBoundingBox"><stop offset="0.228" stop-color="#f5f7fa"/><stop offset="0.262" stop-color="#f2f4f8"/><stop offset="0.525" stop-color="#e4e8ee"/><stop offset="0.754" stop-color="#e0e4eb"/></linearGradient><linearGradient id="b" x1="0.699" y1="0.239" x2="0.408" y2="0.817" gradientUnits="objectBoundingBox"><stop offset="0.228" stop-color="#e0e4eb" stop-opacity="0.4"/><stop offset="0.31" stop-color="#e5e8ee" stop-opacity="0.557"/><stop offset="0.408" stop-color="#ebedf2" stop-opacity="0.714"/><stop offset="0.503" stop-color="#eff1f5" stop-opacity="0.839"/><stop offset="0.594" stop-color="#f2f4f8" stop-opacity="0.929"/><stop offset="0.68" stop-color="#f4f6f9" stop-opacity="0.98"/><stop offset="0.754" stop-color="#f5f7fa"/></linearGradient><linearGradient id="c" x1="0.744" y1="0.239" x2="0.383" y2="0.807" gradientUnits="objectBoundingBox"><stop offset="0.228" stop-color="#f3f4f7"/><stop offset="0.754" stop-color="#f5f7fa"/></linearGradient><linearGradient id="d" x1="0.528" y1="0.536" x2="-0.592" y2="0.808" gradientUnits="objectBoundingBox"><stop offset="0.228" stop-color="#f5f7fa"/><stop offset="0.754" stop-color="#f5f7fa"/></linearGradient><linearGradient id="e" x1="0.265" y1="1.048" x2="0.77" y2="-0.129" gradientUnits="objectBoundingBox"><stop offset="0.228" stop-color="#419988"/><stop offset="0.406" stop-color="#55a694"/><stop offset="0.592" stop-color="#63ae9d"/><stop offset="0.754" stop-color="#68b2a0"/></linearGradient><clipPath id="f"><path class="a" d="M547.743,519.873H692.734a6.712,6.712,0,0,1,6.591,6.67L711.62,749.265c.3,5.48-4.021,10.4-9.135,10.4H551.494c-3.664,0-6.5-2.974-6.6-6.916L538.6,529.99C538.461,524.6,542.737,519.873,547.743,519.873Z" transform="translate(-538.594 -519.873)"/></clipPath><clipPath id="g"><circle class="a" cx="11.078" cy="11.078" r="11.078" transform="translate(0 21.988) rotate(-82.944)"/></clipPath><clipPath id="h"><circle class="a" cx="11.078" cy="11.078" r="11.078" transform="translate(0 21.575) rotate(-76.845)"/></clipPath><clipPath id="i"><circle class="a" cx="11.078" cy="11.078" r="11.078" transform="translate(0 21.01) rotate(-71.487)"/></clipPath><clipPath id="j"><circle class="a" cx="11.078" cy="11.078" r="11.078" transform="translate(0 15.667) rotate(-45)"/></clipPath><linearGradient id="k" x1="0.464" y1="0.869" x2="0.689" y2="-0.072" gradientUnits="objectBoundingBox"><stop offset="0.228" stop-color="#fff"/><stop offset="0.407" stop-color="#f9faff"/><stop offset="0.754" stop-color="#f5f7ff"/></linearGradient><linearGradient id="l" x1="-0.021" y1="2.985" x2="0.382" y2="2.719" gradientUnits="objectBoundingBox"><stop offset="0.228" stop-color="#f5f9ff"/><stop offset="0.407" stop-color="#fafcff"/><stop offset="0.754" stop-color="#fff"/></linearGradient><linearGradient id="m" x1="-0.045" y1="2.214" x2="0.356" y2="2.101" xlink:href="#l"/></defs><g transform="translate(-315.745 -363.668)"><g transform="translate(338.049 387.147)"><g transform="translate(180.083 13.108)"><path class="b" d="M812.45,496.778c.137-24.987,13.078-51.625,21.452-59.491C833.9,437.287,828.237,482.665,812.45,496.778Z" transform="translate(-767.985 -437.287)"/><path class="b" d="M806.384,524.235c12.1-21.863,37.187-38.519,48.933-41.071C855.317,483.164,828.183,520.053,806.384,524.235Z" transform="translate(-764.934 -460.364)"/><path class="b" d="M798.846,560.029c19.212-19.722,48.982-31.788,61.079-32.164C859.925,527.865,821.1,559.89,798.846,560.029Z" transform="translate(-761.142 -482.85)"/><path class="b" d="M786.975,607.706c22.681-17.594,54.3-26.853,66.277-26.208C853.252,581.5,808.914,609.429,786.975,607.706Z" transform="translate(-755.171 -509.812)"/><path class="b" d="M784.711,635.107c23.408-14.5,55.213-19.01,67.042-16.451C851.753,618.656,806.342,640.35,784.711,635.107Z" transform="translate(-754.032 -528.178)"/><path class="b" d="M783.924,664.879c21.891-16.7,53.107-24.277,65.129-22.878C849.053,642,805.962,668,783.924,664.879Z" transform="translate(-753.636 -540.18)"/><path class="b" d="M781.123,698.076c20.823-18.012,51.514-27.495,63.6-26.837C844.722,671.239,803.311,699.835,781.123,698.076Z" transform="translate(-752.227 -554.953)"/><path class="b" d="M773.8,752.286c18.478-20.411,47.788-33.557,59.863-34.375C833.668,717.911,796.042,751.333,773.8,752.286Z" transform="translate(-748.546 -578.446)"/><path class="b" d="M773.067,467.608c13.125,24.2,15.8,56.214,12.569,67.877C785.636,535.485,766.589,488.9,773.067,467.608Z" transform="translate(-747.499 -452.539)"/><path class="b" d="M769.3,532.757c10.578,25.419,9.965,57.536,5.553,68.806C774.85,601.563,760.672,553.276,769.3,532.757Z" transform="translate(-744.878 -485.31)"/><path class="b" d="M750.014,599.8c14.2,23.587,18.32,55.445,15.613,67.241C765.627,667.041,744.5,621.364,750.014,599.8Z" transform="translate(-736.117 -519.034)"/><path class="b" d="M730.081,641.594c16.5,22.038,23.808,53.319,22.3,65.328C752.384,706.922,726.768,663.6,730.081,641.594Z" transform="translate(-726.403 -540.058)"/><path class="b" d="M723.032,683.518c18.3,20.569,28.214,51.125,27.726,63.218C750.758,746.736,721.583,705.729,723.032,683.518Z" transform="translate(-722.98 -561.146)"/></g><g transform="translate(328.708 133.484)"><path class="b" d="M1110.811,734.056c12.281-21.761,36.549-38.734,47.693-41.53C1158.5,692.526,1131.471,729.41,1110.811,734.056Z" transform="translate(-1066.692 -686.053)"/><path class="b" d="M1101.224,767.158c21.21-13.21,51.232-15.552,62.735-12.065C1163.959,755.094,1122.3,774.115,1101.224,767.158Z" transform="translate(-1061.869 -716.797)"/><path class="b" d="M1081.606,796.077c26.381-7.879,58.261-3.931,69.011,1.628C1150.617,797.705,1101.118,806.787,1081.606,796.077Z" transform="translate(-1052.001 -735.912)"/><path class="b" d="M1050.95,829.875c28.376-4.331,60.5,2.966,70.654,9.361C1121.6,839.236,1069.278,842.058,1050.95,829.875Z" transform="translate(-1036.58 -754.486)"/><path class="b" d="M1040.126,845.878c27.5-1.27,57.484,10.264,66.572,18.257C1106.7,864.135,1056.471,860.986,1040.126,845.878Z" transform="translate(-1031.136 -763.144)"/><path class="b" d="M1022.036,875.827c27.25-3.933,58.208,4.638,68.03,11.71C1090.066,887.537,1039.77,889.278,1022.036,875.827Z" transform="translate(-1022.036 -777.759)"/><path class="b" d="M1098.776,679.5c-.313,27.531-13.552,56.8-22.053,65.412C1076.722,744.914,1082.753,694.952,1098.776,679.5Z" transform="translate(-1049.544 -679.502)"/><path class="b" d="M1058.386,735.289c-3.13,27.354-19.3,55.113-28.635,62.811C1029.751,798.1,1040.865,749.016,1058.386,735.289Z" transform="translate(-1025.917 -707.564)"/></g><g transform="translate(0)"><path class="b" d="M443.315,467.033c-3.449-24.748-19.806-49.436-29.149-56.122C414.166,410.911,425.8,455.138,443.315,467.033Z" transform="translate(-387.557 -410.911)"/><path class="b" d="M425.4,497.132c-14.891-20.066-41.965-33.249-53.945-34.222C371.453,462.91,403.236,495.876,425.4,497.132Z" transform="translate(-366.072 -437.068)"/><path class="b" d="M425.429,533.116c-21.657-17-52.764-25.014-64.8-23.783C360.625,509.333,403.349,535.928,425.429,533.116Z" transform="translate(-360.625 -460.357)"/><path class="b" d="M438.305,579.138c-24.814-14.431-57.377-19.418-69.167-17.191C369.138,561.947,416.787,583.754,438.305,579.138Z" transform="translate(-364.907 -486.63)"/><path class="b" d="M443.5,604.8c-25.123-11.264-57.245-11.522-68.63-7.418C374.871,597.386,422.756,612.869,443.5,604.8Z" transform="translate(-367.791 -503.491)"/><path class="b" d="M450.079,634.879c-23.911-13.649-55.857-17.023-67.587-14.042C382.492,620.837,428.648,640.893,450.079,634.879Z" transform="translate(-371.625 -516.004)"/><path class="b" d="M458.772,667.588c-23.028-15.092-54.705-20.423-66.6-18.17C392.176,649.419,437.013,672.273,458.772,667.588Z" transform="translate(-376.496 -530.636)"/><path class="b" d="M476.956,720.269c-21.021-17.781-51.814-26.926-63.891-26.136C413.065,694.133,454.789,722.273,476.956,720.269Z" transform="translate(-387.003 -553.354)"/><path class="b" d="M491.358,430.2c-9.8,25.729-8.212,57.813-3.46,68.944C487.9,499.145,500.6,450.45,491.358,430.2Z" transform="translate(-422.759 -420.615)"/><path class="b" d="M506,494.469c-7.115,26.6-2.25,58.35,3.617,68.936C509.622,563.4,517.273,513.664,506,494.469Z" transform="translate(-431.973 -452.942)"/><path class="b" d="M530.1,558.115c-10.949,25.261-10.807,57.384-6.561,68.717C523.542,626.832,538.426,578.758,530.1,558.115Z" transform="translate(-441.227 -484.958)"/><path class="b" d="M550.659,596.813c-13.437,24.031-16.53,56-13.446,67.708C537.213,664.521,556.862,618.189,550.659,596.813Z" transform="translate(-448.901 -504.423)"/><path class="b" d="M558.419,637.4c-15.413,22.814-21.187,54.414-19.1,66.335C539.319,703.735,562.8,659.223,558.419,637.4Z" transform="translate(-450.305 -524.84)"/></g><g transform="translate(242.331 68.117)"><path class="c" d="M935.913,670.832c.949-11.854-2.787-23.581-3.212-35.465-.693-19.4,7.624-38.366,19.99-53.324,9.777-11.826,21.945-21.384,34.917-29.665a19.977,19.977,0,0,0-8.627-4.09c-9.77-1.924-20.662,5.349-27.126,11.932-6.423,6.541-11.354,14.392-17.456,21.235-6.68,7.49-14.685,13.687-21.607,20.956s-12.906,16.043-14.111,26.007c-2.1,17.393,10.589,35.054,5.112,51.7-3.473,10.554-13.3,17.444-22.089,24.238-17.046,13.174-33.313,31.093-33.473,52.635,0,.557.011,1.11.029,1.663H889.33a134.645,134.645,0,0,1,16.6-32.04C918.136,709.031,934.2,692.166,935.913,670.832Z" transform="translate(-848.231 -547.974)"/><path class="d" d="M993.16,729.536c5.752-12.531,18.219-21.328,22.647-34.385,7.587-22.378-11.281-46.9-5.179-69.728,2.549-9.538,9.146-17.365,15.08-25.254s11.575-16.792,11.649-26.664a21.562,21.562,0,0,0-8.149-16.67c-12.972,8.281-25.14,17.839-34.917,29.665-12.367,14.959-20.684,33.928-19.99,53.324.425,11.884,4.161,23.612,3.211,35.465-1.709,21.334-17.777,38.2-29.983,55.779a134.641,134.641,0,0,0-16.6,32.04h58.157C988.7,751.627,988.41,739.887,993.16,729.536Z" transform="translate(-889.829 -552.431)"/></g><g transform="translate(220.826 19.107)"><path class="e" d="M887.684,617.749c.815-10.148-2.329-20.171-5.838-29.728s-7.464-19.131-8.373-29.271,2.906-27.83,14.341-40.483c10.383-11.489,21.74-46.688,23.163-68.646a22.6,22.6,0,0,0-10.105.739c-12.968,4.068-20.863,17.217-25.146,30.115s-6.275,26.756-13.178,38.464c-6.29,10.67-16.422,19.1-20.58,30.767-9.527,26.733,16.138,56.645,6.616,83.379-3.594,10.09-43.246,42.206-43.624,75.96h36.13l34.081-59.423C880.9,639.635,886.763,629.224,887.684,617.749Z" transform="translate(-804.96 -449.357)"/><path class="f" d="M940.213,664.154c4.222-10.647,11.394-19.95,15.4-30.681,6.749-18.082,3.76-38.7-4.276-56.251-3.34-7.295-6.25-14.773-6.5-22.792-.49-15.8,12.635-29.809,16.038-49.881,4.459-26.3,1.87-42.033-1.466-47.418-2.558-4.129-7.022-6.495-11.863-7.244-1.422,21.958-12.78,57.157-23.163,68.646-11.435,12.653-15.25,30.343-14.341,40.483s4.863,19.714,8.373,29.271,6.653,19.58,5.838,29.728c-.922,11.476-6.785,21.886-12.513,31.873L877.66,709.311h45.962C929.681,684.256,934.255,679.179,940.213,664.154Z" transform="translate(-841.53 -449.624)"/></g><path class="g" d="M716.041,1107.17H538.6c-6.784,0-15.266-3.243-18.849-7.205l-4.885-5.4c-3.583-3.963-.963-7.205,5.821-7.205H698.129c6.784,0,15.266,3.242,18.848,7.205l4.885,5.4C725.445,1103.927,722.825,1107.17,716.041,1107.17Z" transform="translate(-437.402 -751.176)"/></g><g transform="translate(315.745 363.668)"><g transform="translate(41.218 99.912)"><path class="h" d="M435.35,566.172c3.375-2.134,8.878-1.927,11.9.567,1.489,1.228,2.419,3.62,4.1,4.637,4.175,2.52,6.336,1.882,7.917,6.535,2.43,7.154-3.284,10.071-5.507,11.065-4.679,2.094-10.419.858-14.456,1.509a20.917,20.917,0,0,1-6.955-.133,4.924,4.924,0,0,1-3.268-7.378,20.724,20.724,0,0,0,2.007-5.5C432.039,573.587,432.178,568.1,435.35,566.172Z" transform="translate(-413.628 -564.707)"/><path class="i" d="M519.665,950.888s.975,11.332,1.778,14.165,2.8,11.052,4.149,11.246c1.733.25-.157-6.78-.808-11.929s-.872-13.229-.872-13.229l-2.1-1.719Z" transform="translate(-459.538 -758.226)"/><path class="i" d="M426.047,956.009l-.985,9.573s-4.658,2.374-10.271,5.1c-3.092,1.5-1.834,2.661,12.635-3.076l1.8-11.7Z" transform="translate(-406.091 -761.487)"/><path class="h" d="M489.682,697.542c5.479,8.245,8.809,53.2,10.222,65.953,1.8,16.23,1.954,48.607,2.718,64.566l-5.892-.235c-2.519-18.552-9.949-54.968-11.046-61.574-3.187-19.194-10.393-50.06-10.992-68.1C474.314,686.733,482.5,686.733,489.682,697.542Z" transform="translate(-436.91 -627.486)"/><path class="j" d="M439.927,620.1c3.964-7.538,23.537-11.246,28.959-.691l.412,38.921-22.17-17.695C439.749,632.039,439.927,620.1,439.927,620.1Z" transform="translate(-419.428 -588.934)"/><path class="k" d="M488.411,739.3a29.26,29.26,0,0,0,8.381,2.371c4.007.334,4.819-1.394,4.819-1.394l-.784-4.825Z" transform="translate(-443.817 -650.596)"/><path class="i" d="M439.316,586.761a17.059,17.059,0,0,0,.995,6.517c1.076,3.226,3.618,9.056,8.419,7.439,4.307-1.451,6.419-8.889,5.257-12.564C448.731,585.669,444.971,585.526,439.316,586.761Z" transform="translate(-419.106 -575.419)"/><path class="h" d="M445.662,707.508c-1.543,1.951-5.933,48.255-7.433,66.513-.74,9.012-2.108,51.21-1.514,62.638l3.86.2c1.163-6.776,2.865-11.019,4.435-17.869a197.972,197.972,0,0,0,5.241-38.534c.514-5.292,3.7-15.971,4.96-20.972,2.683-10.651,6.173-28.94,4.042-39.746-2.523-12.794-3.474-4.59-4.122-6.012-1.679-3.685-3.5-4.265-6.4-4.816C447.775,708.731,445.326,707.835,445.662,707.508Z" transform="translate(-417.74 -636.539)"/><path class="i" d="M453.2,603.615c1.818,1.852,3.483,2.186,5.928,2.187,3.725,0,8.457-1.816,8.468-4.328,0,0-3.212-.188-3.829-1.2-.453-.742-2.5-9.254-3-12.458-1.08.151-2.663,6.269-3.752,6.379,0,0,1.45,4.123.581,6.215C456.936,602,456.936,602,453.2,603.615Z" transform="translate(-426.104 -576.332)"/><path class="j" d="M447.713,642.17s-2.6,4.136-2.117,6.559c.74,3.685,1.215,12.99,1.215,12.99l1.642,24.27a52.288,52.288,0,0,0,18.391,6.39,14.881,14.881,0,0,0,15.135-7.259l-8.4-35.371-2.189,8.216Z" transform="translate(-422.25 -603.672)"/><path class="j" d="M416.757,979.951s-1.585.7-1.383,1.152,10.884-3.58,10.884-3.58l-.215,1.355-12.894,4.551s-2.2.859-2.351,0S416.757,979.951,416.757,979.951Z" transform="translate(-404.775 -772.362)"/><path class="l" d="M522.423,976.87s3.241,9.964,3.986,10.3c1.283.571-.228-8.907-.228-8.907s2.846,12.827,1.326,13.11C525.066,991.823,522.423,976.87,522.423,976.87Z" transform="translate(-460.926 -772.033)"/><path class="i" d="M467.942,594.763c-.215-.232.669-1.87,1.868-2.937a1.368,1.368,0,0,1,1.676-.142c.381.3-.357,2.306-.73,2.857a11.229,11.229,0,0,1-1.43,1.842,1.963,1.963,0,0,1-1,.622c-.4.079-.507-.2-.576-.555A2.461,2.461,0,0,1,467.942,594.763Z" transform="translate(-433.39 -578.157)"/><path class="j" d="M478.457,617.145a18.177,18.177,0,0,1,3.223,2.436c3.261,3.259,6.323,13.253,6.935,19.057.394,3.73.9,7.768.052,11.431a9.768,9.768,0,0,1-6.236.223c-3.969-1.411-3.751,1.318-6.578-1.706-3.01-3.219-6.782-6.165-7.951-10.441C466.589,633.342,477.547,616.583,478.457,617.145Z" transform="translate(-433.446 -591.078)"/><path class="j" d="M435.217,620.919c-4.137,2.271-8.57,14.017-9.134,17.237-.538,3.07-1.271,6.141-1.5,9.258-.18,2.445-.559,5.712.566,8,2.776,5.643,3,5.089,4.972,2.078,3.249-4.967,14.449-19.314,10.692-25.356C438.889,629.041,439.145,621.935,435.217,620.919Z" transform="translate(-411.605 -592.983)"/><g transform="translate(18.683 13.773)"><path class="m" d="M439.174,598.6c-.932,0-2.016-1.134-2.584-2.743a3.663,3.663,0,0,1-.048-2.872,1.093,1.093,0,0,1,.778-.551c.968-.153,2.155,1.019,2.759,2.729a3.657,3.657,0,0,1,.048,2.872,1.093,1.093,0,0,1-.778.552A1.075,1.075,0,0,1,439.174,598.6Zm-1.673-5.43a.454.454,0,0,0-.064.005.348.348,0,0,0-.25.194,2.989,2.989,0,0,0,.111,2.237c.488,1.381,1.423,2.311,1.932,2.238a.347.347,0,0,0,.251-.194,2.99,2.99,0,0,0-.111-2.237h0C438.9,594.09,438.022,593.171,437.5,593.171Z" transform="translate(-436.273 -592.421)"/></g><g transform="translate(24.41 13.131)"><path class="m" d="M450.264,597.5c-.973,0-1.977-1.314-2.343-3.075a3.657,3.657,0,0,1,.337-2.852,1.093,1.093,0,0,1,.845-.442c.969-.006,2,1.3,2.368,3.075a3.66,3.66,0,0,1-.336,2.852,1.094,1.094,0,0,1-.845.442Zm-1.134-5.618h-.009a.343.343,0,0,0-.274.158,2.988,2.988,0,0,0-.19,2.232c.3,1.424,1.089,2.477,1.606,2.477h.009a.346.346,0,0,0,.274-.159,2.987,2.987,0,0,0,.19-2.232C450.439,592.932,449.646,591.88,449.13,591.88Z" transform="translate(-447.797 -591.129)"/></g><g transform="translate(21.844 15.271)"><rect class="m" width="2.791" height="0.751" transform="translate(0 0.44) rotate(-9.063)"/></g><path class="h" d="M465.467,586l.248,5.914,1.353-.369,1.5-2.342-.25-2.3Z" transform="translate(-432.276 -575.419)"/><path class="j" d="M416.3,658.925l-11.208,48.353,6.338.639a3.194,3.194,0,0,0,3.355-2.182l12.943-39.427Z" transform="translate(-401.904 -612.101)"/><path class="h" d="M426.39,711.48l4.518-.959a1.53,1.53,0,0,1,1.773,1.025l2.945,9.084a1.53,1.53,0,0,1-1.3,1.994l-4.135.418a1.53,1.53,0,0,1-1.579-.967l-3.327-8.544A1.53,1.53,0,0,1,426.39,711.48Z" transform="translate(-412.009 -638.038)"/><path class="k" d="M459.465,714.435a18.534,18.534,0,0,0,3.836-2.281c1.308-.855,2.814-.65,4.087-1.671a26.034,26.034,0,0,0,3.014-2.908,45.9,45.9,0,0,0,4.407-5.882c1.286-2.373,2.295-4.415,2.7-5.352,3.418-7.979,3.3-10,3.3-10l-.58-2.265c-3.74-1.895-9.624-1.9-11.015-.1-3.012,3.9-9.349,18.58-11.211,24.516,0,0-.289.254-.713.624a18.388,18.388,0,0,0-2.688-1.4c-1.169-.376-2.087.918-2.337,1.515s1.461,2.892,1.461,2.892c-2.194,1.518,1.774,2.294,5.265,2.473C459.143,714.543,459.306,714.494,459.465,714.435Z" transform="translate(-425.618 -624.028)"/><path class="n" d="M400.191,747.616a15.983,15.983,0,0,1-1.473-7.4,8.8,8.8,0,0,1,1.608-4.113c.307-.386.766-.689.98-.953,1.135-1.4-.361-3.893,2.754-3.5,2.273.287,2.626,1.365,2.912,3.168.51,3.224,1.2,6.371,1.89,9.538,1.738-.741,1.264-6.982,2.591-4.2,1.2,2.517-.476,7.751-3.076,9.368C404.479,751.952,402.261,751.982,400.191,747.616Z" transform="translate(-398.681 -648.665)"/><path class="j" d="M458.323,698.959c3.3-5.272,10.883-20.165,14.785-23.18,1.959-1.513,7.915-.5,10.947,2.707,0,0-1.119,9.867-21.709,26.658a1.106,1.106,0,0,1-1.761-.4Z" transform="translate(-428.682 -620.232)"/><path class="n" d="M441.112,720.123a9.829,9.829,0,0,1,2.225.275c1.276.3,2.32,1.523,3.257,2.385,1.09,1,2.128,2.156,3.161,3.206.879.893.031,2.65-.839,3.148-.522.3-3.788-1.6-4.235-2.012-1.46-1.342-3.647-1.308-5.323-2.29a25.137,25.137,0,0,1-2.472-1.934c-.68-.516-1.987-.6-2.354-1.652C434.46,719.69,436.62,720.163,441.112,720.123Z" transform="translate(-416.714 -642.866)"/><path class="o" d="M460.438,610.526a6.557,6.557,0,0,0,2.043-2.6s.219,3.256-1.19,4.069a3.155,3.155,0,0,1-2.445.459,3.7,3.7,0,0,0,.962-.718A7.771,7.771,0,0,0,460.438,610.526Z" transform="translate(-428.946 -586.447)"/></g><g transform="translate(99.486)"><path class="a" d="M701.536,773.011c0-.18.008-.358,0-.539L685.468,479.955a6.712,6.712,0,0,0-6.591-6.67H530.285c.631-3.038.183-5.176-2.429-5.025-8.563.495-11.335,11.517-11.335,11.517v0a10.038,10.038,0,0,0-.592,3.6l6.548,292.56c.089,3.952,2.93,6.939,6.6,6.939H691.72a7.659,7.659,0,0,0,3.707,0c6.687-2.007,10.008-9.862,10.008-9.862Z" transform="translate(-515.927 -416.276)"/><path class="p" d="M536.238,467.272h153.8a6.712,6.712,0,0,1,6.591,6.671L712.7,766.459c.3,5.48-4.022,10.4-9.135,10.4H540.24c-3.671,0-6.513-2.987-6.6-6.939l-6.548-292.56C526.97,471.983,531.241,467.272,536.238,467.272Z" transform="translate(-521.541 -415.783)"/><g class="q" transform="translate(11.265 77.631)"><path class="a" d="M547.743,519.873H692.734a6.712,6.712,0,0,1,6.591,6.67L711.62,749.265c.3,5.48-4.021,10.4-9.135,10.4H551.494c-3.664,0-6.5-2.974-6.6-6.916L538.6,529.99C538.461,524.6,542.737,519.873,547.743,519.873Z" transform="translate(-538.594 -519.873)"/><g class="r"><path class="s" d="M643.016,491.882,474.681,653.177l21.958,42.651,195.79-184.3Z" transform="translate(-506.444 -505.793)"/><path class="s" d="M515.337,765.038l184.6-168.858L696.357,614.8,517.488,773.2Z" transform="translate(-526.895 -558.257)"/></g></g><path class="t" d="M689.915,497.966H658.536a2.662,2.662,0,0,1-2.558-3.042h0a3.242,3.242,0,0,1,3.057-3.042h31.379a2.661,2.661,0,0,1,2.559,3.042h0A3.242,3.242,0,0,1,689.915,497.966Z" transform="translate(-586.37 -428.162)"/><path class="t" d="M751.464,494.7a3.476,3.476,0,0,1-3.278,3.261,2.854,2.854,0,0,1-2.743-3.261,3.476,3.476,0,0,1,3.278-3.262A2.854,2.854,0,0,1,751.464,494.7Z" transform="translate(-631.372 -427.94)"/><path class="t" d="M768.7,494.7a3.476,3.476,0,0,1-3.278,3.261,2.854,2.854,0,0,1-2.743-3.261,3.476,3.476,0,0,1,3.278-3.262A2.854,2.854,0,0,1,768.7,494.7Z" transform="translate(-640.045 -427.94)"/><g transform="translate(28.808)"><path class="b" d="M705.523,363.668H573.894s5.225,42.989,9.327,98.281H715.507C711.16,406.727,705.523,363.668,705.523,363.668Z" transform="translate(-573.894 -363.668)"/><g transform="translate(5.603 3.759)"><circle class="a" cx="11.078" cy="11.078" r="11.078" transform="translate(0 21.988) rotate(-82.944)"/><g class="u" transform="translate(0 0)"><g transform="translate(-4.864 3.606)"><path class="s" d="M588.871,383.508a14.7,14.7,0,0,1-3.759,8.333c-2.485,2.685-6.316,3.846-8.162,7.063-4.319,7.53,1.35,12.279,4.051,13.294,10.512,3.948,15.741-8.706,17.279-16.674.553-2.863.509-5.789.865-8.633.236-1.888.505-4.445-.545-6.18C595.714,375.944,590.111,379.778,588.871,383.508Z" transform="translate(-575.38 -378.488)"/><path class="l" d="M603.146,389.877a9.666,9.666,0,0,0-.465,3.706c.088,1.925.573,5.5,3.44,5.356,2.572-.125,4.872-3.853,4.807-6.036A11.362,11.362,0,0,0,603.146,389.877Z" transform="translate(-589.106 -384.217)"/><path class="l" d="M600.321,408.831c.9,1.161,3.853,1.716,5.229,1.877,2.1.245,6.29-3.131,6.46-4.544,0,0-1.795-.316-2.076-.925a57.354,57.354,0,0,1-.87-7.207c-.617.015-1.909,3.354-2.53,3.344,0,0,.546,2.415-.081,3.536C605.978,405.762,600.589,405.837,600.321,408.831Z" transform="translate(-587.926 -388.319)"/><path class="l" d="M607.736,395.148a23.721,23.721,0,0,0,3.133-6.41,3.879,3.879,0,0,0-3.489-5.282,3.827,3.827,0,0,0-3.686,1.586,14.167,14.167,0,0,0-.978,5.019Z" transform="translate(-589.122 -380.983)"/><path class="s" d="M605.77,382.456c-.772.034-.87-.39-1.4.193a8.924,8.924,0,0,0-1.645,2.795,8.162,8.162,0,0,0,2.935.4,5.409,5.409,0,0,1,.576-1.61c-.1.735-.269,1.647-.269,1.647a21.939,21.939,0,0,0,4.994-.094,7.656,7.656,0,0,1-.17,2.065,3.8,3.8,0,0,0,.157,2.609c.346-.224.32-2.335.715-1.2.471-.347.27-2.8.2-3.462a4,4,0,0,0-2.14-3.109,4.546,4.546,0,0,0-2.451-.09A6.558,6.558,0,0,1,605.77,382.456Z" transform="translate(-589.137 -380.425)"/><path class="l" d="M616.715,397.038a2.384,2.384,0,0,1,.53-1.182,4.277,4.277,0,0,1,.96-1.25.415.415,0,0,1,.614.41c0,.82-.583,1.325-.964,2-.13.23-.577,1.118-.893.982C616.737,397.9,616.455,397.019,616.715,397.038Z" transform="translate(-596.12 -386.573)"/></g></g></g><g transform="translate(35.122 10.188)"><rect class="l" width="41.159" height="4.007"/></g><g transform="translate(34.856 20.899)"><rect class="a" width="85.22" height="2.003"/></g><path class="a" d="M820.337,534.021a2.488,2.488,0,0,0-2.347-2.608,2.188,2.188,0,0,1-3.7,0,2.488,2.488,0,0,0-2.347,2.608,2.844,2.844,0,0,0,.152.9h-.006l.014.03c.07.2,4.112,5.722,4.112,5.722l3.811-5.37A2.8,2.8,0,0,0,820.337,534.021Z" transform="translate(-693.636 -448.047)"/><g transform="translate(35.353 29.263)"><rect class="a" width="85.22" height="2.003"/></g><g transform="translate(35.85 37.626)"><rect class="a" width="85.22" height="2.003"/></g><g transform="translate(36.347 45.99)"><rect class="a" width="85.22" height="2.003"/></g><g transform="translate(36.844 54.354)"><rect class="a" width="85.22" height="2.003"/></g><g transform="translate(37.341 62.718)"><rect class="a" width="85.22" height="2.003"/></g><g transform="translate(10.097 109.006)"><path class="v" d="M728.95,621.369c-.671-13.06-1.5-25.957-2.407-38.364H594.211c.86,12.4,1.646,25.3,2.293,38.364Z" transform="translate(-594.211 -583.005)"/><g transform="translate(3.851 2.405)"><circle class="a" cx="11.078" cy="11.078" r="11.078" transform="translate(0 21.575) rotate(-76.845)"/><g class="w" transform="translate(0 0)"><path class="l" d="M616.711,604.855a2.586,2.586,0,0,1,.1-3.66c1.039-1.151,2.639-.74,4.035-.821.444-1.484,2.668-1.9,4.045-1.585a4.267,4.267,0,0,1,2.95,2.95c.442,1.385.449,3.648-.872,4.625a11.861,11.861,0,0,1-2.312,1.34s-1.05,4.53-.509,5.434c.64,1.07,2.784.828,3.626,2.141,1.495,2.329-.978,2.727-2.863,3.318a20.442,20.442,0,0,1-4.2.459c-1.858.2-2.888.8-4.746.409-2.649-.565-3.92-2.313-2.637-4.856,1.142-2.265,3.988-1.652,6.2-1.766a13.879,13.879,0,0,0,.592-2.106c-2.179.609-3.173-.083-3.3-1.491C616.7,607.9,616.711,604.855,616.711,604.855Z" transform="translate(-607.426 -593.3)"/></g></g><g transform="translate(36.108 9.241)"><rect class="l" width="41.159" height="4.007"/></g><g transform="translate(36.108 19.091)"><rect class="a" width="85.221" height="2.003"/></g><path class="a" d="M832.3,636.262a2.488,2.488,0,0,0-2.347-2.608,2.188,2.188,0,0,1-3.7,0,2.488,2.488,0,0,0-2.347,2.608,2.841,2.841,0,0,0,.152.9h-.006l.014.03c.07.2,4.112,5.722,4.112,5.722l3.811-5.37A2.8,2.8,0,0,0,832.3,636.262Z" transform="translate(-709.75 -608.482)"/></g><g transform="translate(12.887 158.096)"><path class="v" d="M733.4,742.252c.049-17.413-.315-42.508-1.109-60.471H599.825c.773,17.936,1.154,43.026,1.172,60.471Z" transform="translate(-599.825 -681.781)"/><g transform="translate(3.075 2.711)"><circle class="a" cx="11.078" cy="11.078" r="11.078" transform="translate(0 21.01) rotate(-71.487)"/><g class="x" transform="translate(0 0)"><g transform="translate(4.605 9.579)"><path class="l" d="M623.3,711.07c.091,2.556-.61,5.041.846,7.342,1.125,1.778,4.2,1.591,5.488.1,1.468-1.7,1.2-3.909,1.176-6.014-.016-1.693-.973-3.7-2.735-4.22a4.95,4.95,0,0,0-3.019.2C623.98,708.932,623.831,709.634,623.3,711.07Z" transform="translate(-619.267 -707.325)"/><path class="l" d="M616.236,710.014a3.509,3.509,0,0,0-.915,2.078,6.015,6.015,0,0,0,.192,2.424,3.405,3.405,0,0,0,2.449,2.3,6.758,6.758,0,0,0,.123-1.043l.662.264a7.227,7.227,0,0,1-.328-1.5,4.518,4.518,0,0,1,.427-.827c1.065-1.657,2.99-1.662,4.659-2.2a4.1,4.1,0,0,0-.084,2.03c.236-.409.363-1.1.861-1.295.34-.131.353-.029.384.319a2.985,2.985,0,0,1-.7,1.866c.172.233.356.475.542.7a1.786,1.786,0,0,0,1.757.5c1.448-.191,2.1-1.444,2.324-2.737a4.134,4.134,0,0,0-.153-1.587,5.918,5.918,0,0,0-1.509-2.481,5.579,5.579,0,0,0-3.464-2.256,8.987,8.987,0,0,0-5.694,1.311c-.487.292-1.287.813-1.459,1.4C616.213,709.622,616.394,709.854,616.236,710.014Z" transform="translate(-615.278 -706.511)"/></g><path class="s" d="M633.052,723.807a6.117,6.117,0,0,1,.771,2.477,7.944,7.944,0,0,1-.305,2.818,2.738,2.738,0,0,0,1.88.834,15.562,15.562,0,0,0,4.4-.364,7.75,7.75,0,0,0,3.709-1.376c.4-.372.03-.627-.265-.968-.629-.727-.991-1.659-1.54-2.437a29.949,29.949,0,0,0-2.523-3.03c-.4-.43-.9-.779-1.336-1.173a1.267,1.267,0,0,0-.5-.343c-.625-.159-1.272.857-1.694,1.183A21.2,21.2,0,0,0,633.052,723.807Z" transform="translate(-619.614 -703.832)"/></g></g><g transform="translate(36.536 9.756)"><rect class="l" width="41.159" height="4.007"/></g><g transform="translate(36.536 19.503)"><rect class="a" width="85.22" height="2.003"/></g><g transform="translate(36.536 26.206)"><rect class="a" width="85.22" height="2.003"/></g><g transform="translate(36.536 32.91)"><rect class="t" width="85.22" height="2.003"/></g><g transform="translate(37.608 32.91)"><rect class="a" width="85.221" height="2.003"/></g><g transform="translate(37.608 39.613)"><rect class="a" width="85.221" height="2.003"/></g></g><g transform="translate(10.255 229.292)"><path class="b" d="M598.282,825.039a603.386,603.386,0,0,1-3.754,62.612H726.157c2.52-17.232,4.129-40.884,4.474-62.612Z" transform="translate(-594.528 -825.039)"/><g transform="translate(5.035 2.296)"><circle class="a" cx="11.078" cy="11.078" r="11.078" transform="translate(0 15.667) rotate(-45)"/><g class="y" transform="translate(0 0)"><path class="l" d="M618.193,861.724c.348-.87.3-1,1.149-1.46a9.83,9.83,0,0,0,1.771-1.18c.975-.836.807-1.7.87-2.888a2.9,2.9,0,0,0-1.1-2.249c-.994-1.066-.833-3.309-.2-4.524.861-1.656,3.513-1.579,4.955-2.656a5.5,5.5,0,0,1,2.433-1.318c.456-.095.926-.038,1.37-.123.6-.115,1.02-.594,1.607-.751,1.635-.436.89,1.278.427,2.056-.619,1.042-1.767,1.842-2.05,3.091-.388,1.721-.49,3.537-.837,5.279-.339,1.7-1.127,2.69-2.867,2.755a2.673,2.673,0,0,0,.836,2.141c1.345.962,4.109,2.092,3.874,4.179-2.361-.084-4.823.848-7.122.134-.979-.3-1.894-.683-2.831-1.061C619.7,862.836,618.524,862.943,618.193,861.724Z" transform="translate(-611.467 -837.126)"/></g></g><g transform="translate(39.604 10.173)"><path class="t" d="M674.218,849.54h0Z" transform="translate(-674.218 -847.536)"/><rect class="l" width="41.158" height="4.007"/></g><g transform="translate(39.762 20.291)"><rect class="a" width="85.22" height="2.003"/></g><g transform="translate(39.762 26.995)"><rect class="a" width="85.22" height="2.003"/></g><g transform="translate(38.689 33.698)"><rect class="a" width="85.22" height="2.003"/></g><g transform="translate(38.689 40.402)"><rect class="a" width="85.22" height="2.003"/></g><path class="a" d="M839.755,926.207a2.488,2.488,0,0,0-2.348-2.608,2.188,2.188,0,0,1-3.7,0,2.488,2.488,0,0,0-2.347,2.608,2.85,2.85,0,0,0,.152.9H831.5l.014.03c.07.2,4.112,5.722,4.112,5.722l3.811-5.37A2.8,2.8,0,0,0,839.755,926.207Z" transform="translate(-713.658 -874.617)"/></g></g><circle class="a" cx="13.123" cy="13.123" r="13.123" transform="translate(91.893 327.203) rotate(-7.944)"/></g><g transform="translate(1.08 265.552)"><path class="h" d="M385.812,907.45c2.3,2.61.263,3.263.437,6.648.217,4.2.1,8.462.3,12.713.1,2.175,2.585,4.935,2.808,7.122.208,2.041,1.136,18.029.688,20.078a23.069,23.069,0,0,1-2.392,6.445,8.4,8.4,0,0,1-5.417,3.974c-2.062.622-4.008,1.761-6.171,2-1.875.209-11.208-2.4-12.068-3.03-2.871-2.109-2.791-1.562-3.532-4.556-.954-3.85-.627-12.747,1.3-20.053a23.66,23.66,0,0,1,6.071-10.093c1.48-1.522.7-4.523,2.555-5.768.3-.2.525-6.9.4-9.377-.212-4.058,1.069-11.054,7.66-10.93C381.623,902.683,385.562,903.538,385.812,907.45Z" transform="translate(-339.059 -900.324)"/><path class="h" d="M403.9,904.953c-.425-1.739-1.976-6.271-3.983-6.954-1,1.878-.841,3.67-1.031,5.724-.116,1.251-.207,1.72,1.147,2.218A4.109,4.109,0,0,0,403.9,904.953Z" transform="translate(-358.614 -897.999)"/><path class="h" d="M380.394,910.117c-.81-1.6-2.581-6.047-1.5-7.866,1.982.78,3.03,2.244,4.512,3.681.9.876,1.277,1.173.573,2.428A4.111,4.111,0,0,1,380.394,910.117Z" transform="translate(-348.42 -900.138)"/><path class="h" d="M343.732,1017.528c-1.258.125-1.728,1.3-2.922,1.8-1.126.469-9.645,1.66-16.564,5.612-1.284.734-8.382,5.182-5.744,7.246,1.124.88,5.817-2.49,7.963-3.334,11.583-4.55,15.864-3.055,18.444-3.3,2.6-.249,8-.4,10.311-1.584Z" transform="translate(-317.919 -958.124)"/><path class="h" d="M391.37,944.808c-3.849-4.672-9.1-3.912-9.236-2.647Z" transform="translate(-350.22 -919.73)"/></g><g transform="translate(345.815 224.179)"><path class="n" d="M1103,1244.844l-.717-8.273,5.335-.376-.4,9.2Z" transform="translate(-1057.202 -1026.746)"/><path class="n" d="M1209.353,1211.459l-8.085-6.4,3.16-2.76,8.635,7.138-2.418,2.869Z" transform="translate(-1106.995 -1009.696)"/><path class="h" d="M1123.681,1066.894c-3.054-10.164-6.779-46.331-6.779-46.331l-1.354-10.046h-37.925l.586,22.7s1.309,27.506,2.229,36.636c1.383,13.72,7.7,54.615,7.7,54.615h7.721s.635-40.18,1.117-52.984c.379-10.062,1.2-21.74,1.024-19.117,0,0,5.613,12.853,10.335,22.446,5.606,11.388,30.732,39.167,30.732,39.167l6.612-5.726S1127.374,1079.182,1123.681,1066.894Z" transform="translate(-1044.8 -913.225)"/><path class="z" d="M1100,882.72c-2.567-1.27-13.418-1.491-17.755-.839-4.979.747-6.861,4.6-7.255,12.77-.776,16.064,1.217,60.533,1.217,60.533l48.258.606s-14.728-39.1-14.227-52.384C1110.446,897.956,1108.133,886.741,1100,882.72Z" transform="translate(-1043.386 -848.339)"/><path class="z" d="M1046.031,887.17l20.858-4.58c.2,4.2.929,10.88-1.929,14.709-2.916,3.908-18.124,5.28-18.124,5.28Z" transform="translate(-1028.908 -848.876)"/><path class="n" d="M1093.962,848.2l3.838,17.787,3.713.135-12.827,9.829-4.565-9.236,3.842-.892-.831-11.109Z" transform="translate(-1048.068 -831.575)"/><path class="n" d="M1089.463,834.482c-.764,4.559-5.605,10.836-10.746,12.092-4.616,1.128-5.142-8.419-4.855-12.217.23-3.046.476-6.317.907-8.966.5-3.1,3.574-3.66,8.168-3.252S1090.669,827.289,1089.463,834.482Z" transform="translate(-1042.875 -818.409)"/><path class="l" d="M1208.747,1216.031l3.7,2.727-3.088,2.518-.821-.32.371.962-14.142,10.443s-1.71-.527-1.105-1.732,12.028-11.522,12.028-11.522l-.228-.741Z" transform="translate(-1103.104 -1016.603)"/><path class="l" d="M1089.049,1253.707l.651,4.253-4.149.146-.359-.724-.453.958-18.181-.173s-.852-1.4.5-1.977,17.449-1.887,17.449-1.887l.391-.7Z" transform="translate(-1039.1 -1035.5)"/><path class="n" d="M1029.333,876.427c-1.92.152-5.882,1.548-11.969-1.993-4.577-2.663-6.19-10.186-5.7-15.269.58-6.053,3.463-11.279,5.384-16.921l5.7-5.069c2.446,4.051-.393,9.069-1.669,12.913-1.354,4.08-4.561,13.259.771,15.76,1.537.721,5.276.252,6.851-.546Z" transform="translate(-1011.577 -826.031)"/><path class="h" d="M1027.092,834.081h0a1.742,1.742,0,0,1-1.5-1.955l1.791-13.612a1.743,1.743,0,0,1,1.955-1.5h0a1.743,1.743,0,0,1,1.5,1.955l-1.791,13.611A1.743,1.743,0,0,1,1027.092,834.081Z" transform="translate(-1018.619 -815.882)"/><path class="n" d="M1025.554,833.163c.468,1.022-.922,2.851-1.684,3.477a1.285,1.285,0,0,1,2.394.771c-.033,1.348-1.356,3.07-2.241,4.039-1.03,1.126-1.736,1.853-2.417.242a8.11,8.11,0,0,1-.516-3.485C1021.09,837.285,1024.714,831.327,1025.554,833.163Z" transform="translate(-1016.362 -823.837)"/><path class="aa" d="M1073.529,821.867c-1.224,1.536-1.632,4.955-.037,6.407,1.168,1.062,3.39.153,4.872.667.572,1.843-.506,4.142.193,6a3.347,3.347,0,0,0,2.468,2.018c1.653.4,2.115-.4,3.421-1.255,2.2-1.45,2,.41,3.77,1.124,2.11.853,2.38-1.649,2.749-3.361.835-3.881,2.069-7.086-.793-10.267-2.167-2.409-5.226-3.242-8.133-3.7-1.6-.252-4-.939-5.639-.393C1074.986,819.577,1074.081,821.252,1073.529,821.867Z" transform="translate(-1042.196 -816.838)"/><path class="h" d="M1081.582,828.635l-29.021-12.6.435-1.023,9.448,3.945s3.621-5.572,9.757-3.882,9.995,5.28,10.558,7.805S1081.582,828.635,1081.582,828.635Z" transform="translate(-1032.193 -814.752)"/><path class="ab" d="M1127.361,946.172l-5.817-.311s4.8,11.047,1.458,11.8-8.786-5.871-13.074-5.9-4.623,4.849-1.534,6.626,8.363,8.513,11.52,11.21c4.591,3.923,13.408,5.759,13.967,0l-4.492-15.026Z" transform="translate(-1059.25 -880.702)"/><path class="z" d="M1148.794,915.533c-.185-1.686-6.345-19.228-13.718-26.164a26.256,26.256,0,0,0-10.363-5.713c-.421,11.559,1.975,30.7,1.975,30.7Z" transform="translate(-1068.462 -849.412)"/><path class="n" d="M1135.2,945.066s5.492,19.975-4.436,19.831-18.266-13.806-23.918-15.634-4.772-5.626-4.772-5.626,2.508-2.88,8.207.036,11.894,12.064,15.062,10.3,0-9.551,0-9.551Z" transform="translate(-1057.073 -878.945)"/><path class="ac" d="M1098.745,1029.988l28.782.362.885,7.944s-4-1.993-16.017-5.352S1098.745,1029.988,1098.745,1029.988Z" transform="translate(-1055.424 -923.012)"/><path class="ab" d="M1098.769,849.64a.523.523,0,0,1,.513.313,1.443,1.443,0,0,1,.037,1.035,3.722,3.722,0,0,1-.526.945,2.446,2.446,0,0,0,.382.237,2.177,2.177,0,0,1-.313.374c-.7.573-1.388.777-3.413.947-.379.031-.962-.236-.578-.673a8.332,8.332,0,0,1,1.361-1.1c.437-.323.825-.685,1.235-1.036.252-.215.556-.4.825-.593.14-.1.363-.217.432-.384C1098.74,849.7,1098.754,849.707,1098.769,849.64Z" transform="translate(-1053.413 -832.301)"/><path class="n" d="M1093.894,850.46c.351-.455.647-.963,1.025-1.4.609-.7,1.746-1.7,2.757-1.6.858.086.377,1.549.123,2.043a6.2,6.2,0,0,1-3.217,2.653c-.287.12-1.739.69-1.4-.56C1093.179,851.6,1093.708,850.7,1093.894,850.46Z" transform="translate(-1052.599 -831.201)"/><path class="o" d="M1090.695,864.334a6.121,6.121,0,0,0,2.558-2.14l1.256-1.688s-.367,4.221-1.907,6.48l-1.539,2.259Z" transform="translate(-1051.375 -837.767)"/><path class="ac" d="M1110.975,1073.808l-7.567-20.662,6.238,56.147s.17-13.594.619-23.354C1110.686,1076.766,1110.975,1073.808,1110.975,1073.808Z" transform="translate(-1057.77 -934.669)"/><path class="o" d="M1107.661,1239.8h-5.135l5.015,2.806Z" transform="translate(-1057.326 -1028.56)"/><path class="o" d="M1207.81,1210.308l3.107-2.691-.745,4.56Z" transform="translate(-1110.286 -1012.371)"/></g><g transform="translate(255.678 202.534)"><path class="i" d="M915.162,1036.707s10.993,27.792,16.746,40.649,27.305,51.347,27.305,51.347l6.979-.818s-16.56-36.079-20.676-48.357-9.165-43.015-9.165-43.015Z" transform="translate(-872.942 -904.657)"/><path class="o" d="M944.931,1077.437a39.709,39.709,0,0,0,6.949,15.214c4.531,5.742,8.478,7.066,8.478,7.066-1.654-5-3.115-12.1-3.115-12.1Z" transform="translate(-887.916 -925.242)"/><path class="i" d="M880.852,1027.392s-4.115,20.508-3.2,36.672,13.828,54.823,13.828,54.823h5.009s-7.961-36.038-6.3-50.2,7.1-38.544,7.1-38.544Z" transform="translate(-854.008 -900.068)"/><path class="o" d="M897.247,1037.25l8.234,5.2-.3,2.246-4.961,28.126Z" transform="translate(-863.93 -905.027)"/><path class="i" d="M864.407,806.54a51.23,51.23,0,0,0-2.933-6.974c-2.119-3.679-7.315-11.377-7.461-11.53,0,0,0-.006-.007-.01-2.651-2.694-2.818-4.651-4.671-6.27l-2.136,3.058c.184.714.864,1.444,1.065,2.164-.362-.039-1.485-1.144-1.819-1.1l-.667.94a38.365,38.365,0,0,1,4.705,3.384c2.405,3.137,4.064,3.689,5.779,14.775.366,2.369.563,6.043.828,6.162C858.129,811.605,865.181,808.867,864.407,806.54Z" transform="translate(-838.04 -776.508)"/><path class="j" d="M876.594,961.4l-11.163,36.1s9.88,2.8,18.729,5.962,22.82,24.375,38.013,30.051a32.129,32.129,0,0,0,27.547-2.646L902.138,961.5Z" transform="translate(-847.926 -866.873)"/><path class="h" d="M897.128,1206.166a4.214,4.214,0,0,1-2.289.939c-1.645.081-2.759-.42-3.27-1.986l-.171-.525s-11.9.934-11.82,2.464c.057,1.051,9.085,3.576,14.742,5.057a2.789,2.789,0,0,0,3.419-3.338Z" transform="translate(-855.043 -989.204)"/><path class="h" d="M987.03,1213.053h0s-11.974,1.4-12.059,3.549c-.057,1.446,11.19,3.153,18.519,4.11a3.146,3.146,0,0,0,3.153-4.653l-2.17-3.9s1.067,1.915-3.336,2.288C989.465,1214.591,987.857,1214.513,987.03,1213.053Z" transform="translate(-903.027 -993.011)"/><path class="z" d="M838.608,771.2a3.037,3.037,0,0,1-5.14,0,3.454,3.454,0,0,0-3.259,3.621,3.948,3.948,0,0,0,.211,1.249h-.008l.019.041c.1.28,5.708,7.944,5.708,7.944l5.291-7.455a3.9,3.9,0,0,0,.436-1.778,3.454,3.454,0,0,0-3.259-3.621Z" transform="translate(-830.209 -771.197)"/><path class="i" d="M836.184,793.248c1.384-2.68.382-3.39.82-3.953s1.724,1.076,1.5,4.472c-.3,4.447-.468,6.852,1.972,10.774,7.606,12.228,16.766,24.684,22.846,38.054,2.308,5.073,6.352,7.194,1.9,11.832-2.78,2.894-4.6,2.108-7.218-.876-4.351-4.964-14.79-30.751-18.156-37.188-2.36-4.513-7.375-16.45-8.255-21.784-.187-1.135-1.841-6.906.671-9.144l3,4.16A10.539,10.539,0,0,0,836.184,793.248Z" transform="translate(-830.547 -778.358)"/><path class="ad" d="M864.477,854.525c-.8,2.193-3.39,24.975-3.212,28.77l4.162,2.411c-1.622-4.033,6.86,17.093,9.067,21.935l25.544.1s-5.356-36.59-6.01-39.515a21.579,21.579,0,0,0-13.185-4.257c-4.009,0-5.609.682-7.851.834C872.984,864.807,864.477,854.525,864.477,854.525Z" transform="translate(-845.826 -813.113)"/><g transform="translate(36.659 80.456)"><path class="ab" d="M920.584,940.014l-15.735-6.928c-1.174,2.517-1.045,5.989-.345,8.646.645,2.45,2.127,3.941,3.866,5.476l13.154.053Z" transform="translate(-903.972 -933.086)"/><path class="ae" d="M916.443,965.074a27.394,27.394,0,0,1,3.377,6.414c.89,2.239,1.269,4.663,2.471,6.762,2.47,4.314,6.627,6.728,11.428,7.669a12.213,12.213,0,0,0,6.414-.275,2.011,2.011,0,0,0,1.153-1.663l-15.5-22.6-12.959.061A25.058,25.058,0,0,1,916.443,965.074Z" transform="translate(-908.424 -947.319)"/></g><path class="h" d="M863.691,817.6c-5.74,3.385-7.219,12.475-5.015,18.276,1.492,3.925,4.671,6.97,7.073,10.329,2.448,3.425,2.449,6.384,2.449,10.462,0,7.454-.443,16.562,6.011,21.53,7.7,5.922,15.593,1.988,24.277,3.264a24.01,24.01,0,0,1,10.964,4.82c3.789,2.964,7.032,6.464,12.094,6.954,8.529.826,14.653-8.911,11.208-16.545-3.122-6.917-11.275-13.952-18.287-16.524-4.962-1.819-6.585-5.413-9-9.822a23,23,0,0,0-8.032-8.319c-2.7-1.8-5.934-2.2-8.578-3.877-3.788-2.406-4.971-7.681-7.124-11.35C877.8,820.109,868.966,813.749,863.691,817.6Z" transform="translate(-844.039 -793.951)"/></g><path class="i" d="M654.652,1014.808c-3.273-.425-6.942.2-10.123.539-1.515.16-8.391.3-8.73,1.678,1.105.939,3,.806,4.546,1.043-1,.648-4.342.288-4.351,1.753,4.078,1.6,8.924-.868,13.04.073-.326,1.786-8.4.865-8.153,2.86,2.656.521,7.186-.319,9.631-1.084,2.192-.686,8.541-1.3,10.9-1.817,1.992-.44,1.179-.741,2.648-1.926,1.8-1.451-.03-1.965-1.774-2.288A38.026,38.026,0,0,0,654.652,1014.808Z" transform="translate(-476.739 -691.133)"/><path class="af" d="M599.632,990.244l-34.884-3.691a5.452,5.452,0,0,0-5.925,4.382l-4.694,24.158a4.425,4.425,0,0,0,3.976,5.253l38.095,3.173,7.375,9.7.674-37.752A5.161,5.161,0,0,0,599.632,990.244Z" transform="translate(-435.615 -676.976)"/><g transform="translate(160.471 287.602)"><path class="n" d="M755.168,1165.613S745,1186.466,743.2,1201.386c-1.391,11.531,11.3,42.193,14.522,53.022l-4.181-.384s-22.566-29.088-24.143-47.137,11.565-42.258,11.565-42.258Z" transform="translate(-684.226 -1054.169)"/><path class="n" d="M811.879,1169.407s.115,20.668,8.778,35.884,37.483,50.04,37.483,50.04h-4.78c-11.965-9.779-36.707-32.082-44.757-41.085-14.392-16.1-14.679-46.487-14.679-46.487Z" transform="translate(-716.749 -1055.744)"/><path class="o" d="M796.7,1194.342l1.159,6.847a32.333,32.333,0,0,1,6.132,5.863c2.39,3.192,8.545,5.656,14.546,4.048l-3.266-9.621Z" transform="translate(-718.148 -1069.115)"/><path class="o" d="M738.377,1190.563a65.148,65.148,0,0,0-3.51,9.139,9.762,9.762,0,0,0,4.977,3.423c3.005.711,5.551-2.276,9.287-2.161l2.97-8.524Z" transform="translate(-687.042 -1067.215)"/><path class="h" d="M760.563,951.927c-.987,6.166-2.735,11.091-7.159,15.872-4.732,5.114-12.03,7.324-15.545,13.452-8.226,14.342,2.571,23.388,7.716,25.321,20.021,7.52,29.98-16.581,32.909-31.757,1.052-5.453.97-11.027,1.646-16.443.45-3.6.963-8.467-1.038-11.772C773.6,937.52,762.923,944.824,760.563,951.927Z" transform="translate(-687.042 -942.367)"/><path class="z" d="M679.2,1009.44c-.159.4,1.815,11.457,1.815,11.457,25.848,1.2,56.75-2.224,55.2-1.941-3.384.617,1.319-.858,2.317-4.883a24.671,24.671,0,0,1,1.267-4.505c.669-1.519,1.855-3.317,1.751-5.051-8.4-.446-26.347.767-34.685,1.605C701.863,1006.624,681.094,1008.3,679.2,1009.44Z" transform="translate(-659.034 -973.581)"/><path class="n" d="M669.6,1070.715c-5.815-1.215-11.8-5.182-18.131-3.832,1.563,1.253,3.331,1.865,4.894,2.984-5.982.96-11.116-2.8-16.75-2.894.706,1.455,2.972,2.688,4.46,3.331-1.93.411-3.378-.772-5.071-1.282-2.6,3.9,9.593,6.112,11.525,6.209,5.327.269,10.845-.193,16.119.291.724.066,3.631.574,4.175.072C671.74,1074.742,671.04,1071.72,669.6,1070.715Z" transform="translate(-638.637 -1004.862)"/><path class="n" d="M787.75,964.058a18.407,18.407,0,0,0-.885,7.059c.168,3.666,1.091,10.467,6.551,10.2,4.9-.239,9.281-7.339,9.155-11.5C797.845,965.695,793.985,964.441,787.75,964.058Z" transform="translate(-713.184 -953.278)"/><path class="n" d="M795.582,995.579c1.718,2.212,3.46,2.778,6.081,3.084,3.992.467,9.292-.891,9.617-3.581,0,0-3.419-.6-3.955-1.763-.394-.851-1.521-10.231-1.656-13.727-1.176.028-3.636,6.387-4.818,6.369,0,0,1.04,4.6-.154,6.734C799.79,994.314,799.79,994.314,795.582,995.579Z" transform="translate(-717.583 -961.092)"/><path class="n" d="M796.492,974.1a45.187,45.187,0,0,0,5.969-12.208c1.539-4.786-1.188-9.761-6.646-10.06-2.69-.147-5.7.62-7.02,3.022-.8,1.457-2.131,7.422-1.862,9.56Z" transform="translate(-713.215 -947.118)"/><path class="h" d="M792.749,949.923c-1.472.066-1.658-.742-2.659.368a16.991,16.991,0,0,0-3.133,5.322,15.572,15.572,0,0,0,5.591.761,10.272,10.272,0,0,1,1.1-3.066c-.194,1.4-.513,3.136-.513,3.136,1.864.468,8.041.07,9.512-.18a14.58,14.58,0,0,1-.324,3.934,7.229,7.229,0,0,0,.3,4.969c.659-.426.609-4.447,1.36-2.289.9-.662.514-5.331.373-6.594a7.625,7.625,0,0,0-4.076-5.922c-1.474-.669-3.151-.358-4.667-.171A12.468,12.468,0,0,1,792.749,949.923Z" transform="translate(-713.244 -946.056)"/><path class="z" d="M770.1,1044.721c-1.208-9.072.417-19.267-6.62-34.286-1.343-2.865-4.183-4.048-6.079-4.771a22.31,22.31,0,0,0-8.225-1.254,6.588,6.588,0,0,0-6.22,4.361c-3.708,10.686-6.7,35.389-7.962,38.67-1.6,4.154-42.838,42.01-42.838,42.01s22.172,15.041,35.683,12.484c8.111-1.534,12.615-3.475,20.715-.812,8.228,2.7,8.607,10.354,21.224,7.875l2.075-10.271c1.171-9.1,3.092-18.4,2.864-27.605C774.491,1062.134,771.251,1053.39,770.1,1044.721Z" transform="translate(-665.557 -973.575)"/><path class="l" d="M765.671,1344.352l1.633,4.294H744.821a4.825,4.825,0,0,1,3.536-2.806l13.133-1.871Z" transform="translate(-692.049 -1144.38)"/><path class="l" d="M901.226,1343.968l.834,4.678H879.578a4.825,4.825,0,0,1,3.536-2.806l13.133-1.871Z" transform="translate(-759.835 -1144.38)"/><path class="n" d="M804.065,1002.335l-2.579,7.2,8.74-6.2-.493-2.318Z" transform="translate(-720.553 -971.869)"/><path class="n" d="M813.6,977.7a4.533,4.533,0,0,1,1.009-2.251,8.12,8.12,0,0,1,1.828-2.382.79.79,0,0,1,1.169.78c0,1.561-1.11,2.524-1.836,3.809-.248.439-1.1,2.13-1.7,1.871C813.636,979.34,813.1,977.662,813.6,977.7Z" transform="translate(-726.544 -957.765)"/><path class="ab" d="M795.817,1026.374c1.569,6.376.425,14.067-3.761,19.116-2.575,3.106-6.384,4.374-9.929,6.215a25.349,25.349,0,0,0-8.849,7.426c-3.17,4.157-6.447,8.816-12.02,8.815,0,0,7.954-8.088,8.338-9.15s2.33-11.635,2.33-11.635Z" transform="translate(-700.318 -984.624)"/><path class="z" d="M755.341,1016.565c-2.03-.908-3.839.571-5.864,1.491-20.219,9.19-48.781,19.006-62.14,24.964,1.128,2.479,3.413,7.547,4.844,9.9,0,0,2.048.6,10.518-.334,19-2.09,34.233-8.426,44.165-13.177,6-2.87,11.344-5.548,12.4-12.319a12.24,12.24,0,0,0-1-7.346A6.077,6.077,0,0,0,755.341,1016.565Z" transform="translate(-663.134 -979.547)"/><path class="o" d="M806.735,994.294a10.1,10.1,0,0,0,2.306-1.99l-2.231,6.017Z" transform="translate(-723.193 -967.486)"/></g><g transform="translate(11.706 260.016)"><path class="n" d="M355.749,1197.428l-11.8,1.06-2.237-3.858,12.439-2.256Z" transform="translate(-340.514 -1040.539)"/><path class="z" d="M377.612,1037.335c-4.847,2.275.728,15.386,3.664,20.593,4.478,7.943,7.536,12.367,7.026,21.929-.573,10.779-3.83,15.939-11.814,22.7-3.145,2.663-12.018,8.1-18.425,9.8l3.582,7.82c12.139-.745,32.936-13.631,40.651-20.661,14.437-13.155,14.025-32.967.669-47.181C396.714,1045.686,388.283,1044.332,377.612,1037.335Z" transform="translate(-348.738 -962.551)"/><path class="h" d="M342.78,1196.081l.831,4.193-.831,12.627a7.552,7.552,0,0,1-1.494,2.865c-.993.993-1.987-19.685-1.987-19.685Z" transform="translate(-339.299 -1042.404)"/><path class="ab" d="M406.2,1077.329c.332.823.666,1.645.993,2.47a59.108,59.108,0,0,0,6.313,10.934,46.011,46.011,0,0,1,5.174,10.068c.531-.443,1.026-.872,1.473-1.279,14.437-13.155,14.025-32.967.669-47.181-6.253-6.654-14.684-8.008-25.355-15-4.846,2.275.728,15.386,3.664,20.593C403.193,1065.132,406.076,1069.455,406.2,1077.329Z" transform="translate(-366.593 -962.551)"/><path class="n" d="M520.857,1271.8l-2.689,13.414H513.9l.73-16.584Z" transform="translate(-427.128 -1078.898)"/><path class="z" d="M396.634,1045.605c5.162,15.944,23.816,34.063,34.776,46.212,15,16.63,18.09,45.265,21.528,66.4h9.274c1.821-9.438-.179-32.709-.994-41.16-1.782-18.491-8.4-31.266-17.637-47.848-4.96-8.907-8.106-22.08-16.681-27.983C421.829,1037.73,393.055,1032.6,396.634,1045.605Z" transform="translate(-367.985 -962.495)"/><path class="i" d="M486.722,906.731C485,918.19,496.05,933.2,500.852,917.489c1.866-6.108,1.722-16.8-1.534-16.713-5.121.131-8.548-4.594-11.545,1.959Z" transform="translate(-413.365 -893.092)"/><path class="t" d="M435.61,1004.838c-11.71,0-16.1-.994-25.834-6.955-10.742-6.582-15.375-2.424-26.827-2.981,0,0,21.632-42.057,34.445-50.011s18.216-2.981,18.216-2.981Z" transform="translate(-361.256 -913.779)"/><path class="i" d="M480.083,910.046l-8.653,21.315H480.2l4.675-13.5Z" transform="translate(-405.764 -898.523)"/><path class="aa" d="M478.059,904.393c-.518,2.557.518,7.683,4.257,7.011,2.587-.465,3.842-4.559,4.522-6.748,1.465-4.718,3.341-1.718,6.755-3.707,1.124-.655,1.284-2.069,2.31-2.754,1.272-.849,2.557-.407,4.069-.564,3.443-.359,5.2-4.528,4.589-7.97-2.559-1.642-4.9.577-7.594-.544-2.381-.991-4.451-2.862-7.193-2.065-1.233.358-2.139,1.539-3.186,2.127-1.6.9-2.255.817-4.148.939-3.4.221-6.125.843-6.133,4.508C476.3,897.828,477.546,900.79,478.059,904.393Z" transform="translate(-408.216 -886.859)"/><path class="h" d="M513.578,1302h4.266l12.49,2.035a7.553,7.553,0,0,1,2.709,1.761c.894,1.084-19.785.1-19.785.1Z" transform="translate(-426.803 -1095.683)"/><path class="ag" d="M448.035,1003.517s.437,12.682,8.69,18.77a52.391,52.391,0,0,0,11.625,6.257V1018.42a30.077,30.077,0,0,1-11.625-6.9c-5.51-5.259-8.181-8-8.181-8Z" transform="translate(-393.995 -945.54)"/><path class="i" d="M527.91,1027.12c5.05,2.3,20.573,1.439,21.411,5.634.23,1.148-6.458-1.849-8.345-.249-2.361,2,5.715,4.851,5.72,6.1.006,1.762-4.907-1.742-6.86-2.187.055,1.205,5.893,3.419,4.926,4.55-.858,1-4.331-1.513-5.334-2.007-3.391-1.673-6.548-3.713-9.86-5.36C526.866,1032.257,526.157,1030.474,527.91,1027.12Z" transform="translate(-433.692 -957.413)"/><path class="t" d="M448.227,967.079c-5.162,12-.834,20.6,9.321,28,6.567,4.786,33.488,7.9,33.488,7.9V992.3c-7.5-2.041-26.968-6.84-29.954-14.186C458.977,972.939,458.308,952.021,448.227,967.079Z" transform="translate(-392.992 -924.516)"/><path class="o" d="M491.489,939.683a4.319,4.319,0,0,1-1.055-1.871l-.443,6.2Z" transform="translate(-415.1 -912.49)"/></g><g transform="translate(321.599 159.555)"><path class="ah" d="M962.852,684.718l48.078,8.312L991.8,700.583Z" transform="translate(-962.852 -684.718)"/><path class="v" d="M962.852,684.718l27.329,25.748,1.614-9.883Z" transform="translate(-962.852 -684.718)"/><path class="ai" d="M990.181,710.466l-1.242-8.453-26.086-17.295Z" transform="translate(-962.852 -684.718)"/><path class="s" d="M988.939,702.013l-22.574,7.638-3.513-24.933Z" transform="translate(-962.852 -684.718)"/></g><g transform="translate(0 211.588)"><path class="ai" d="M340.21,810.119l-.8,4.476,43.279,3.077Z" transform="translate(-327.651 -799.83)"/><path class="b" d="M341.726,793.494l12.2-4.078,29.93,17.842Z" transform="translate(-328.814 -789.416)"/><path class="aj" d="M341.44,797.621l-.176,3.338-.106,2.013,42.412,8.414Z" transform="translate(-328.528 -793.544)"/><path class="b" d="M327.037,801.219,370.787,813.2l-55.042-7.334Z" transform="translate(-315.745 -795.353)"/></g><g transform="translate(283.646 85.718)"><path class="ai" d="M924.535,559.277l2.64-15.287-40.691,8.525Z" transform="translate(-886.484 -540.092)"/><path class="ak" d="M931.991,551.046l-45.507,5.019,63.363,3.213Z" transform="translate(-886.484 -543.641)"/><path class="al" d="M927.175,540.045l-40.691,8.525,28.861-12.424Z" transform="translate(-886.484 -536.146)"/></g></g><g transform="translate(451.734 685.411)"><path class="z" d="M590.207,1011.065a.812.812,0,0,0-.831.789c0,7.407,6.329,13.412,14.138,13.413h0a.812.812,0,0,0,.831-.789v-2.762a.812.812,0,0,0-.831-.789,9.965,9.965,0,0,1-2.969-.449.865.865,0,0,0-.848.2l-1.83,1.736a12.3,12.3,0,0,1-5.481-5.2l1.829-1.744a.747.747,0,0,0,.208-.8,8.567,8.567,0,0,1-.474-2.817.812.812,0,0,0-.831-.789m7.07,0v2.367h-2.5v1.578h2.5v2.367h1.663v-2.367h2.5v-1.578h-2.5v-2.367" transform="translate(-589.376 -1011.065)"/></g></g></svg>